<svg width="106" height="25" viewBox="0 0 106 25" fill="none" xmlns="http://www.w3.org/2000/svg">
<path d="M52.8336 14.5659H62.5164V9.76628H52.8336V5.09182H64.2693V0H47.1157V24.9583H64.8119V19.8664H52.8753V14.5659H52.8336ZM16.2726 11.8114V11.7696C18.0673 11.0601 19.4446 8.84808 19.4446 6.38564C19.4446 2.62938 17.3161 0.0417372 12.0573 0.0417372H0.538086V25H12.266C17.3995 25 20.4463 22.3706 20.4463 17.7379C20.4463 14.5659 19.069 12.4791 16.2726 11.8114ZM6.25595 4.92487H11.306C13.2676 4.92487 13.7685 5.50918 13.7685 7.38731C13.7685 9.14023 12.892 10.0584 11.306 10.0584H6.25595V4.92487ZM11.2226 20.0334H6.25595V14.399H11.5565C13.5598 14.399 14.4363 15.1502 14.4363 17.0701C14.4363 19.1152 13.2259 20.0334 11.2226 20.0334ZM34.6366 0H24.4947V24.9583H30.2125V4.92487H34.7618C36.9321 4.92487 37.7251 5.7596 37.7251 8.13857C37.7251 10.8097 35.9304 12.3957 32.7167 12.3957H31.5898L32.5498 16.8197H33.5932C39.9371 16.8197 43.6099 13.2304 43.6099 8.43072C43.6099 2.8798 41.4396 0 34.6366 0ZM88.7267 7.7212C88.685 2.62938 85.9304 0 80.2543 0H69.6115V24.9583H75.3294V15.9015H79.503L84.0523 24.9583H90.6049L84.5949 14.7746C87.3077 13.3556 88.7267 10.3923 88.7267 7.7212ZM79.8787 11.2688H75.2877V4.88314H80.0039C82.0907 4.88314 82.7585 5.71786 82.7585 7.63773C82.8002 9.76628 82.0489 11.2688 79.8787 11.2688Z" fill="#005157"/>
<path d="M104.336 8.97336C105.839 7.42912 105.839 2.71292 104.336 1.16868C102.834 -0.375562 98.1177 -0.375562 96.6152 1.16868C95.1127 2.71292 95.1127 7.42912 96.6152 8.97336C98.1594 10.5176 102.834 10.5176 104.336 8.97336Z" fill="#005157"/>
<path d="M96.6152 15.9848C95.1127 17.5291 95.1127 22.2453 96.6152 23.7895C98.1177 25.3338 102.834 25.3338 104.336 23.7895C105.839 22.2453 105.839 17.5291 104.336 15.9848C102.834 14.4406 98.1594 14.4406 96.6152 15.9848Z" fill="#005157"/>
</svg>
