<svg xmlns="http://www.w3.org/2000/svg" viewBox="0 0 126 63"><defs><style>.cls-1{fill:none;}.cls-2{fill:#00ae65;}.cls-3{fill:#005157;}</style></defs><g id="Livello_2" data-name="Livello 2"><g id="Livello_1-2" data-name="Livello 1"><rect class="cls-1" width="126" height="63"/><path class="cls-2" d="M10.64,51.79v-.06a4.31,4.31,0,0,0,3.52-4.56c0-3.75-3.16-4.94-6.85-4.94H.7V62.06H7.21c4.53,0,7.78-1.46,7.78-5.51C15,53.69,13,52.17,10.64,51.79ZM4.83,45.45h2c2.11,0,3.16.8,3.16,2.38,0,1.78-1,2.56-3.25,2.56H4.83ZM7,58.85H4.83V53.4H7.21c2.48,0,3.52.92,3.52,2.79S9.45,58.85,7,58.85ZM29.4,52.56c0-3.84-1.87-5.36-5.84-5.36a8.5,8.5,0,0,0-5.86,2.09l1.73,2.41a5.89,5.89,0,0,1,3.69-1.37c1.75,0,2.35.62,2.35,2v.84H25c-3.83,0-7.74,1.34-7.74,5.15,0,2.62,1.91,4.08,4.38,4.08a5.29,5.29,0,0,0,4.08-1.91,8,8,0,0,0,.24,1.55h3.9a19.11,19.11,0,0,1-.42-4.29Zm-3.93,5.69a3.44,3.44,0,0,1-2.68,1.28c-.92,0-1.76-.45-1.76-1.52,0-1.69,1.58-2.38,3.93-2.38h.51Zm16.23-11a5.85,5.85,0,0,0-4.62,2.18V47.56H33.21v14.5h4V52.32a4,4,0,0,1,3-1.82c1.43,0,1.94.76,1.94,2.21v9.35H46V51.91C46,49.2,44.85,47.2,41.7,47.2Zm15,12.15c-2.47,0-3.63-1.93-3.63-4.64s1.19-4.5,3.54-4.5a5.27,5.27,0,0,1,3,.86l1.28-2.71a7.9,7.9,0,0,0-4.44-1.16c-4.38,0-7.62,2.74-7.62,7.62,0,4.5,2.86,7.6,7.5,7.6A7.94,7.94,0,0,0,61,61.11l-1.22-2.65A5.69,5.69,0,0,1,56.68,59.35Zm18.16-1.58V52.56c0-3.84-1.87-5.36-5.84-5.36a8.5,8.5,0,0,0-5.86,2.09l1.73,2.41a5.88,5.88,0,0,1,3.68-1.37c1.76,0,2.36.62,2.36,2v.84H70.4c-3.84,0-7.73,1.34-7.73,5.15,0,2.62,1.9,4.08,4.37,4.08a5.27,5.27,0,0,0,4.08-1.91,8,8,0,0,0,.24,1.55h3.9A19.11,19.11,0,0,1,74.84,57.77Zm-3.93.48a3.43,3.43,0,0,1-2.68,1.28c-.92,0-1.76-.45-1.76-1.52,0-1.69,1.58-2.38,3.93-2.38h.51Z"/><path class="cls-3" d="M20.05,15.15v-.07c2.2-.86,3.89-3.62,3.89-6.64,0-4.63-2.63-7.83-9.1-7.83H.7V31.33H15.11c6.29,0,10.08-3.23,10.08-8.92C25.19,18.53,23.5,16,20.05,15.15ZM7.75,6.64H14c2.42,0,3,.73,3,3.06,0,2.17-1.1,3.27-3,3.27H7.75Zm6.09,18.6H7.75V18.33h6.5c2.45,0,3.56.94,3.56,3.27C17.81,24.15,16.28,25.24,13.84,25.24ZM109.2,10.12C109.14,3.83,105.74.61,98.75.61H85.65V31.33h7V20.19h5.18l5.59,11.14h8L104.13,18.8A9.82,9.82,0,0,0,109.2,10.12ZM98.36,14.49H92.71V6.64h5.8c2.56,0,3.41,1,3.41,3.39C101.93,12.64,101,14.49,98.36,14.49Zm-33.3,4.07H77V12.64H65.06V6.85H79.12V.61H58V31.33H79.76V25.07H65.06Zm50.47.71c-1.38,1.36-1.38,5.56,0,6.92s5.65,1.36,7,0,1.38-5.56,0-6.92S116.91,17.9,115.53,19.27Zm7-6c1.38-1.36,1.38-5.56,0-6.92s-5.65-1.36-7,0-1.38,5.56,0,6.92S121.18,14.61,122.56,13.25ZM42.64.61H30.16V31.33h7.06V6.64H42.8c2.67,0,3.63,1,3.63,3.94,0,4.06-3.33,5.28-6.26,5.23l1.18,5.46c7.81,0,12.36-4.43,12.36-10.35C53.71,4.15,51,.61,42.64.61Z"/></g></g></svg>